<?xml version="1.0" encoding="UTF-8"?>
<!DOCTYPE svg PUBLIC "-//W3C//DTD SVG 1.1//EN" "http://www.w3.org/Graphics/SVG/1.1/DTD/svg11.dtd">
<svg xmlns="http://www.w3.org/2000/svg" version="1.1" width="512px" height="512px" style="shape-rendering:geometricPrecision; text-rendering:geometricPrecision; image-rendering:optimizeQuality; fill-rule:evenodd; clip-rule:evenodd" xmlns:xlink="http://www.w3.org/1999/xlink">
<g><path style="opacity:1" fill="#f9f9f9" d="M 233.5,-0.5 C 248.167,-0.5 262.833,-0.5 277.5,-0.5C 314.026,2.8963 348.36,13.563 380.5,31.5C 380.821,33.0481 381.821,33.7148 383.5,33.5C 409.752,48.0736 432.419,67.0736 451.5,90.5C 451.427,92.0269 452.094,93.0269 453.5,93.5C 458.976,98.3076 463.31,103.974 466.5,110.5C 466.427,112.027 467.094,113.027 468.5,113.5C 468.427,115.027 469.094,116.027 470.5,116.5C 473,119.494 475,122.827 476.5,126.5C 476.427,128.027 477.094,129.027 478.5,129.5C 497.135,161.738 508.135,196.404 511.5,233.5C 511.5,248.167 511.5,262.833 511.5,277.5C 498.959,377.766 446.959,449.266 355.5,492C 330.316,502.296 304.316,508.796 277.5,511.5C 262.833,511.5 248.167,511.5 233.5,511.5C 196.404,508.135 161.738,497.135 129.5,478.5C 129.027,477.094 128.027,476.427 126.5,476.5C 122.827,475 119.494,473 116.5,470.5C 116.027,469.094 115.027,468.427 113.5,468.5C 113.027,467.094 112.027,466.427 110.5,466.5C 103.974,463.31 98.3076,458.976 93.5,453.5C 93.0269,452.094 92.0269,451.427 90.5,451.5C 67.0736,432.419 48.0736,409.752 33.5,383.5C 33.7148,381.821 33.0481,380.821 31.5,380.5C 13.563,348.36 2.8963,314.026 -0.5,277.5C -0.5,262.833 -0.5,248.167 -0.5,233.5C 2.86528,196.404 13.8653,161.738 32.5,129.5C 33.9063,129.027 34.573,128.027 34.5,126.5C 36.0002,122.827 38.0002,119.494 40.5,116.5C 41.9063,116.027 42.573,115.027 42.5,113.5C 43.9063,113.027 44.573,112.027 44.5,110.5C 47.6903,103.974 52.0236,98.3076 57.5,93.5C 58.9063,93.0269 59.573,92.0269 59.5,90.5C 64.4629,83.8695 70.1295,77.8695 76.5,72.5C 80.4356,70.2343 83.7689,67.2343 86.5,63.5C 86.8333,62.5 87.5,61.8333 88.5,61.5C 90.7488,60.9202 92.4154,59.5869 93.5,57.5C 115.522,38.3118 140.522,23.9785 168.5,14.5C 171.716,14.6545 174.383,13.6545 176.5,11.5C 195.171,5.44798 214.171,1.44798 233.5,-0.5 Z M 364.5,82.5 C 364.973,83.9063 365.973,84.573 367.5,84.5C 381.021,94.0095 393.687,104.676 405.5,116.5C 405.427,118.027 406.094,119.027 407.5,119.5C 417.974,131.112 426.974,143.779 434.5,157.5C 434.932,158.71 435.599,159.71 436.5,160.5C 464.697,218.175 466.863,276.842 443,336.5C 438.396,346.044 433.563,355.377 428.5,364.5C 427.094,364.973 426.427,365.973 426.5,367.5C 416.991,381.021 406.324,393.687 394.5,405.5C 390.9,407.43 387.9,410.097 385.5,413.5C 315.247,465.959 240.247,473.626 160.5,436.5C 159.71,435.599 158.71,434.932 157.5,434.5C 143.779,426.974 131.112,417.974 119.5,407.5C 119.027,406.094 118.027,405.427 116.5,405.5C 104.676,393.687 94.0095,381.021 84.5,367.5C 84.573,365.973 83.9063,364.973 82.5,364.5C 46.6178,303.611 41.7845,240.277 68,174.5C 77.2984,154.4 89.1317,136.067 103.5,119.5C 104.906,119.027 105.573,118.027 105.5,116.5C 109.5,113.167 113.167,109.5 116.5,105.5C 118.027,105.573 119.027,104.906 119.5,103.5C 171.6,58.6472 231.6,42.8139 299.5,56C 322.582,61.5468 344.249,70.3802 364.5,82.5 Z M 250.5,230.5 C 270.977,230.143 280.81,240.143 280,260.5C 275.505,274.984 265.672,281.484 250.5,280C 236.016,275.505 229.516,265.672 231,250.5C 233.682,239.986 240.182,233.319 250.5,230.5 Z"/></g>
<g><path style="opacity:0.925" fill="#989898" d="M 176.5,11.5 C 174.383,13.6545 171.716,14.6545 168.5,14.5C 170.936,13.129 173.603,12.129 176.5,11.5 Z"/></g>
<g><path style="opacity:0.016" fill="#696969" d="M 380.5,31.5 C 381.71,31.9321 382.71,32.5987 383.5,33.5C 381.821,33.7148 380.821,33.0481 380.5,31.5 Z"/></g>
<g><path style="opacity:0.933" fill="#9c9c9c" d="M 93.5,57.5 C 92.4154,59.5869 90.7488,60.9202 88.5,61.5C 89.5846,59.4131 91.2512,58.0798 93.5,57.5 Z"/></g>
<g><path style="opacity:0.953" fill="#a6a6a6" d="M 86.5,63.5 C 83.7689,67.2343 80.4356,70.2343 76.5,72.5C 79.2311,68.7657 82.5644,65.7657 86.5,63.5 Z"/></g>
<g><path style="opacity:0.455" fill="#767676" d="M 364.5,82.5 C 366.027,82.427 367.027,83.0937 367.5,84.5C 365.973,84.573 364.973,83.9063 364.5,82.5 Z"/></g>
<g><path style="opacity:0.784" fill="#767676" d="M 59.5,90.5 C 59.573,92.0269 58.9063,93.0269 57.5,93.5C 57.427,91.9731 58.0937,90.9731 59.5,90.5 Z"/></g>
<g><path style="opacity:0.784" fill="#767676" d="M 451.5,90.5 C 452.906,90.9731 453.573,91.9731 453.5,93.5C 452.094,93.0269 451.427,92.0269 451.5,90.5 Z"/></g>
<g><path style="opacity:0.008" fill="#797979" d="M 119.5,103.5 C 119.027,104.906 118.027,105.573 116.5,105.5C 116.973,104.094 117.973,103.427 119.5,103.5 Z"/></g>
<g><path style="opacity:0.561" fill="#777777" d="M 44.5,110.5 C 44.573,112.027 43.9063,113.027 42.5,113.5C 42.427,111.973 43.0937,110.973 44.5,110.5 Z"/></g>
<g><path style="opacity:0.561" fill="#777777" d="M 466.5,110.5 C 467.906,110.973 468.573,111.973 468.5,113.5C 467.094,113.027 466.427,112.027 466.5,110.5 Z"/></g>
<g><path style="opacity:0.482" fill="#747474" d="M 42.5,113.5 C 42.573,115.027 41.9063,116.027 40.5,116.5C 40.427,114.973 41.0937,113.973 42.5,113.5 Z"/></g>
<g><path style="opacity:0.482" fill="#747474" d="M 468.5,113.5 C 469.906,113.973 470.573,114.973 470.5,116.5C 469.094,116.027 468.427,115.027 468.5,113.5 Z"/></g>
<g><path style="opacity:0.008" fill="#797979" d="M 105.5,116.5 C 105.573,118.027 104.906,119.027 103.5,119.5C 103.427,117.973 104.094,116.973 105.5,116.5 Z"/></g>
<g><path style="opacity:0.008" fill="#797979" d="M 405.5,116.5 C 406.906,116.973 407.573,117.973 407.5,119.5C 406.094,119.027 405.427,118.027 405.5,116.5 Z"/></g>
<g><path style="opacity:0.427" fill="#747474" d="M 34.5,126.5 C 34.573,128.027 33.9063,129.027 32.5,129.5C 32.427,127.973 33.0937,126.973 34.5,126.5 Z"/></g>
<g><path style="opacity:0.392" fill="#5a5a5a" d="M 380.5,128.5 C 381.209,127.596 382.209,127.263 383.5,127.5C 383.737,128.791 383.404,129.791 382.5,130.5C 382.5,129.167 381.833,128.5 380.5,128.5 Z"/></g>
<g><path style="opacity:0.427" fill="#747474" d="M 476.5,126.5 C 477.906,126.973 478.573,127.973 478.5,129.5C 477.094,129.027 476.427,128.027 476.5,126.5 Z"/></g>
<g><path style="opacity:1" fill="#f9f9f9" d="M 380.5,128.5 C 381.833,128.5 382.5,129.167 382.5,130.5C 357.736,189.017 332.736,247.351 307.5,305.5C 306.5,305.833 305.833,306.5 305.5,307.5C 247.351,332.736 189.017,357.736 130.5,382.5C 129.167,382.5 128.5,381.833 128.5,380.5C 153.488,321.855 178.488,263.188 203.5,204.5C 262.326,178.78 321.326,153.446 380.5,128.5 Z M 250.5,230.5 C 240.182,233.319 233.682,239.986 231,250.5C 229.516,265.672 236.016,275.505 250.5,280C 265.672,281.484 275.505,274.984 280,260.5C 280.81,240.143 270.977,230.143 250.5,230.5 Z"/></g>
<g><path style="opacity:0.918" fill="#767676" d="M 434.5,157.5 C 436.048,157.821 436.715,158.821 436.5,160.5C 435.599,159.71 434.932,158.71 434.5,157.5 Z"/></g>
<g><path style="opacity:0.047" fill="#454545" d="M 307.5,305.5 C 307.5,306.833 306.833,307.5 305.5,307.5C 305.833,306.5 306.5,305.833 307.5,305.5 Z"/></g>
<g><path style="opacity:0.455" fill="#767676" d="M 82.5,364.5 C 83.9063,364.973 84.573,365.973 84.5,367.5C 83.0937,367.027 82.427,366.027 82.5,364.5 Z"/></g>
<g><path style="opacity:0.455" fill="#767676" d="M 428.5,364.5 C 428.573,366.027 427.906,367.027 426.5,367.5C 426.427,365.973 427.094,364.973 428.5,364.5 Z"/></g>
<g><path style="opacity:0.016" fill="#696969" d="M 31.5,380.5 C 33.0481,380.821 33.7148,381.821 33.5,383.5C 32.5987,382.71 31.9321,381.71 31.5,380.5 Z"/></g>
<g><path style="opacity:0.392" fill="#5a5a5a" d="M 128.5,380.5 C 128.5,381.833 129.167,382.5 130.5,382.5C 129.791,383.404 128.791,383.737 127.5,383.5C 127.263,382.209 127.596,381.209 128.5,380.5 Z"/></g>
<g><path style="opacity:0.008" fill="#797979" d="M 116.5,405.5 C 118.027,405.427 119.027,406.094 119.5,407.5C 117.973,407.573 116.973,406.906 116.5,405.5 Z"/></g>
<g><path style="opacity:0.973" fill="#a2a2a2" d="M 394.5,405.5 C 392.1,408.903 389.1,411.57 385.5,413.5C 387.9,410.097 390.9,407.43 394.5,405.5 Z"/></g>
<g><path style="opacity:0.918" fill="#767676" d="M 157.5,434.5 C 158.71,434.932 159.71,435.599 160.5,436.5C 158.821,436.715 157.821,436.048 157.5,434.5 Z"/></g>
<g><path style="opacity:0.784" fill="#767676" d="M 90.5,451.5 C 92.0269,451.427 93.0269,452.094 93.5,453.5C 91.9731,453.573 90.9731,452.906 90.5,451.5 Z"/></g>
<g><path style="opacity:0.561" fill="#777777" d="M 110.5,466.5 C 112.027,466.427 113.027,467.094 113.5,468.5C 111.973,468.573 110.973,467.906 110.5,466.5 Z"/></g>
<g><path style="opacity:0.482" fill="#747474" d="M 113.5,468.5 C 115.027,468.427 116.027,469.094 116.5,470.5C 114.973,470.573 113.973,469.906 113.5,468.5 Z"/></g>
<g><path style="opacity:0.427" fill="#747474" d="M 126.5,476.5 C 128.027,476.427 129.027,477.094 129.5,478.5C 127.973,478.573 126.973,477.906 126.5,476.5 Z"/></g>
</svg>
