<?xml version="1.0" encoding="UTF-8"?>
<!DOCTYPE svg PUBLIC "-//W3C//DTD SVG 1.1//EN" "http://www.w3.org/Graphics/SVG/1.1/DTD/svg11.dtd">
<svg xmlns="http://www.w3.org/2000/svg" version="1.1" width="512px" height="512px" style="shape-rendering:geometricPrecision; text-rendering:geometricPrecision; image-rendering:optimizeQuality; fill-rule:evenodd; clip-rule:evenodd" xmlns:xlink="http://www.w3.org/1999/xlink">
<g><path style="opacity:1" fill="#fefefe" d="M 245.5,-0.5 C 252.167,-0.5 258.833,-0.5 265.5,-0.5C 272.955,1.89414 279.955,5.39414 286.5,10C 357.701,81.0346 428.701,152.201 499.5,223.5C 499.427,225.027 500.094,226.027 501.5,226.5C 504.839,229.835 507.172,233.835 508.5,238.5C 508.41,241.152 509.076,243.485 510.5,245.5C 510.833,245.5 511.167,245.5 511.5,245.5C 511.5,252.167 511.5,258.833 511.5,265.5C 505.229,288.437 490.229,300.77 466.5,302.5C 463.167,302.5 459.833,302.5 456.5,302.5C 456.5,354.5 456.5,406.5 456.5,458.5C 454.084,486.912 439.084,504.579 411.5,511.5C 379.167,511.5 346.833,511.5 314.5,511.5C 310.139,509.468 307.139,506.135 305.5,501.5C 305.667,458.499 305.5,415.499 305,372.5C 304.768,371.263 304.268,370.263 303.5,369.5C 302.227,367.287 301.227,364.954 300.5,362.5C 300.573,360.973 299.906,359.973 298.5,359.5C 294.582,355.706 289.916,353.206 284.5,352C 265.167,351.333 245.833,351.333 226.5,352C 215.561,354.606 209.061,361.439 207,372.5C 206.667,415.5 206.333,458.5 206,501.5C 203.978,506.02 200.811,509.353 196.5,511.5C 163.833,511.5 131.167,511.5 98.5,511.5C 98.5,511.167 98.5,510.833 98.5,510.5C 96.4855,509.076 94.1522,508.41 91.5,508.5C 73.3342,502.334 61.6675,490 56.5,471.5C 56.5905,468.848 55.9238,466.515 54.5,464.5C 54.5,462.833 54.5,461.167 54.5,459.5C 54.5,407.167 54.5,354.833 54.5,302.5C 50.8333,302.5 47.1667,302.5 43.5,302.5C 20.276,300.271 5.60931,287.938 -0.5,265.5C -0.5,258.833 -0.5,252.167 -0.5,245.5C 0.869545,241.571 2.36954,237.571 4,233.5C 5.37099,230.734 7.20432,228.401 9.5,226.5C 10.9063,226.027 11.573,225.027 11.5,223.5C 11.8333,222.5 12.5,221.833 13.5,221.5C 85.118,151.549 156.118,80.8823 226.5,9.5C 232.148,4.84268 238.482,1.50935 245.5,-0.5 Z"/></g>
<g><path style="opacity:0.898" fill="#a0a0a0" d="M 226.5,9.5 C 156.118,80.8823 85.118,151.549 13.5,221.5C 83.882,150.118 154.882,79.4511 226.5,9.5 Z"/></g>
<g><path style="opacity:0.729" fill="#727272" d="M 11.5,223.5 C 11.573,225.027 10.9063,226.027 9.5,226.5C 9.42702,224.973 10.0937,223.973 11.5,223.5 Z"/></g>
<g><path style="opacity:0.71" fill="#737373" d="M 499.5,223.5 C 500.906,223.973 501.573,224.973 501.5,226.5C 500.094,226.027 499.427,225.027 499.5,223.5 Z"/></g>
<g><path style="opacity:0.714" fill="#888888" d="M 508.5,238.5 C 509.924,240.515 510.59,242.848 510.5,245.5C 509.076,243.485 508.41,241.152 508.5,238.5 Z"/></g>
<g><path style="opacity:0.169" fill="#2e2e2e" d="M 43.5,302.5 C 47.1667,302.5 50.8333,302.5 54.5,302.5C 54.5,354.833 54.5,407.167 54.5,459.5C 53.5011,407.669 53.1678,355.669 53.5,303.5C 49.9581,303.813 46.6248,303.479 43.5,302.5 Z"/></g>
<g><path style="opacity:0.122" fill="#212121" d="M 466.5,302.5 C 463.713,303.477 460.713,303.81 457.5,303.5C 457.832,355.336 457.499,407.003 456.5,458.5C 456.5,406.5 456.5,354.5 456.5,302.5C 459.833,302.5 463.167,302.5 466.5,302.5 Z"/></g>
<g><path style="opacity:0.008" fill="#777777" d="M 298.5,359.5 C 299.906,359.973 300.573,360.973 300.5,362.5C 299.094,362.027 298.427,361.027 298.5,359.5 Z"/></g>
<g><path style="opacity:0.757" fill="#bebebe" d="M 303.5,369.5 C 304.268,370.263 304.768,371.263 305,372.5C 305.5,415.499 305.667,458.499 305.5,501.5C 304.813,457.646 304.146,413.646 303.5,369.5 Z"/></g>
<g><path style="opacity:0.902" fill="#979797" d="M 54.5,464.5 C 55.9238,466.515 56.5905,468.848 56.5,471.5C 55.0762,469.485 54.4095,467.152 54.5,464.5 Z"/></g>
<g><path style="opacity:0.773" fill="#949494" d="M 91.5,508.5 C 94.1522,508.41 96.4855,509.076 98.5,510.5C 95.8478,510.59 93.5145,509.924 91.5,508.5 Z"/></g>
</svg>
