<?xml version="1.0" encoding="UTF-8"?>
<!DOCTYPE svg PUBLIC "-//W3C//DTD SVG 1.1//EN" "http://www.w3.org/Graphics/SVG/1.1/DTD/svg11.dtd">
<svg xmlns="http://www.w3.org/2000/svg" version="1.1" width="512px" height="512px" style="shape-rendering:geometricPrecision; text-rendering:geometricPrecision; image-rendering:optimizeQuality; fill-rule:evenodd; clip-rule:evenodd" xmlns:xlink="http://www.w3.org/1999/xlink">
<g><path style="opacity:1" fill="#fefefe" d="M 250.5,-0.5 C 255.5,-0.5 260.5,-0.5 265.5,-0.5C 268.76,0.788988 272.094,2.12232 275.5,3.5C 275.821,5.04814 276.821,5.71481 278.5,5.5C 283.063,7.39538 286.73,10.3954 289.5,14.5C 289.427,16.0269 290.094,17.0269 291.5,17.5C 295.889,22.278 298.722,27.9447 300,34.5C 300.5,93.1657 300.667,151.832 300.5,210.5C 359.168,210.333 417.834,210.5 476.5,211C 479.955,211.898 483.289,213.065 486.5,214.5C 486.821,216.048 487.821,216.715 489.5,216.5C 494.063,218.395 497.73,221.395 500.5,225.5C 500.427,227.027 501.094,228.027 502.5,228.5C 506.823,233.48 509.823,239.147 511.5,245.5C 511.5,252.167 511.5,258.833 511.5,265.5C 506.348,283.484 494.682,294.984 476.5,300C 417.834,300.5 359.168,300.667 300.5,300.5C 300.667,359.168 300.5,417.834 300,476.5C 294.984,494.682 283.484,506.348 265.5,511.5C 260.5,511.5 255.5,511.5 250.5,511.5C 247.781,510.087 244.781,509.42 241.5,509.5C 236.393,508.449 232.059,506.115 228.5,502.5C 228.027,501.094 227.027,500.427 225.5,500.5C 221.395,497.73 218.395,494.063 216.5,489.5C 216.715,487.821 216.048,486.821 214.5,486.5C 213.065,483.289 211.898,479.955 211,476.5C 210.5,417.834 210.333,359.168 210.5,300.5C 153.5,300.5 96.5,300.5 39.5,300.5C 36.7814,299.087 33.7814,298.42 30.5,298.5C 25.3926,297.449 21.0592,295.115 17.5,291.5C 17.0269,290.094 16.0269,289.427 14.5,289.5C 10.3954,286.73 7.39538,283.063 5.5,278.5C 5.71481,276.821 5.04814,275.821 3.5,275.5C 2.12232,272.094 0.788988,268.76 -0.5,265.5C -0.5,258.833 -0.5,252.167 -0.5,245.5C 1.17686,239.147 4.17686,233.48 8.5,228.5C 9.90632,228.027 10.573,227.027 10.5,225.5C 10.8333,224.5 11.5,223.833 12.5,223.5C 14.7488,222.92 16.4154,221.587 17.5,219.5C 21.0592,215.885 25.3926,213.551 30.5,212.5C 33.7814,212.58 36.7814,211.913 39.5,210.5C 96.5,210.5 153.5,210.5 210.5,210.5C 210.333,151.832 210.5,93.1657 211,34.5C 212.278,27.9447 215.111,22.278 219.5,17.5C 220.906,17.0269 221.573,16.0269 221.5,14.5C 221.833,13.5 222.5,12.8333 223.5,12.5C 225.749,11.9202 227.415,10.5869 228.5,8.5C 232.059,4.88458 236.393,2.55124 241.5,1.5C 244.781,1.57968 247.781,0.913011 250.5,-0.5 Z"/></g>
<g><path style="opacity:0.941" fill="#909090" d="M 245.5,-0.5 C 247.167,-0.5 248.833,-0.5 250.5,-0.5C 247.781,0.913011 244.781,1.57968 241.5,1.5C 242.833,0.833333 244.167,0.166667 245.5,-0.5 Z"/></g>
<g><path style="opacity:0.953" fill="#7f7f7f" d="M 275.5,3.5 C 276.71,3.93205 277.71,4.59872 278.5,5.5C 276.821,5.71481 275.821,5.04814 275.5,3.5 Z"/></g>
<g><path style="opacity:0.89" fill="#939393" d="M 228.5,8.5 C 227.415,10.5869 225.749,11.9202 223.5,12.5C 224.585,10.4131 226.251,9.07978 228.5,8.5 Z"/></g>
<g><path style="opacity:0.788" fill="#757575" d="M 221.5,14.5 C 221.573,16.0269 220.906,17.0269 219.5,17.5C 219.427,15.9731 220.094,14.9731 221.5,14.5 Z"/></g>
<g><path style="opacity:0.776" fill="#767676" d="M 289.5,14.5 C 290.906,14.9731 291.573,15.9731 291.5,17.5C 290.094,17.0269 289.427,16.0269 289.5,14.5 Z"/></g>
<g><path style="opacity:0.941" fill="#909090" d="M 39.5,210.5 C 36.7814,211.913 33.7814,212.58 30.5,212.5C 33.2186,211.087 36.2186,210.42 39.5,210.5 Z"/></g>
<g><path style="opacity:0.953" fill="#7f7f7f" d="M 486.5,214.5 C 487.71,214.932 488.71,215.599 489.5,216.5C 487.821,216.715 486.821,216.048 486.5,214.5 Z"/></g>
<g><path style="opacity:0.89" fill="#939393" d="M 17.5,219.5 C 16.4154,221.587 14.7488,222.92 12.5,223.5C 13.5846,221.413 15.2512,220.08 17.5,219.5 Z"/></g>
<g><path style="opacity:0.788" fill="#757575" d="M 10.5,225.5 C 10.573,227.027 9.90632,228.027 8.5,228.5C 8.42702,226.973 9.09368,225.973 10.5,225.5 Z"/></g>
<g><path style="opacity:0.776" fill="#767676" d="M 500.5,225.5 C 501.906,225.973 502.573,226.973 502.5,228.5C 501.094,228.027 500.427,227.027 500.5,225.5 Z"/></g>
<g><path style="opacity:0.953" fill="#7f7f7f" d="M 3.5,275.5 C 5.04814,275.821 5.71481,276.821 5.5,278.5C 4.59872,277.71 3.93205,276.71 3.5,275.5 Z"/></g>
<g><path style="opacity:0.776" fill="#787878" d="M 14.5,289.5 C 16.0269,289.427 17.0269,290.094 17.5,291.5C 15.9731,291.573 14.9731,290.906 14.5,289.5 Z"/></g>
<g><path style="opacity:0.624" fill="#818181" d="M 30.5,298.5 C 33.7814,298.42 36.7814,299.087 39.5,300.5C 36.2186,300.58 33.2186,299.913 30.5,298.5 Z"/></g>
<g><path style="opacity:0.953" fill="#7f7f7f" d="M 214.5,486.5 C 216.048,486.821 216.715,487.821 216.5,489.5C 215.599,488.71 214.932,487.71 214.5,486.5 Z"/></g>
<g><path style="opacity:0.776" fill="#787878" d="M 225.5,500.5 C 227.027,500.427 228.027,501.094 228.5,502.5C 226.973,502.573 225.973,501.906 225.5,500.5 Z"/></g>
<g><path style="opacity:0.624" fill="#818181" d="M 241.5,509.5 C 244.781,509.42 247.781,510.087 250.5,511.5C 248.833,511.5 247.167,511.5 245.5,511.5C 244.167,510.833 242.833,510.167 241.5,509.5 Z"/></g>
</svg>
